<svg xmlns="http://www.w3.org/2000/svg" width="32" height="32" viewBox="0 0 32 32">
  <defs>
    <linearGradient id="bookGradient" x1="0%" y1="0%" x2="100%" y2="100%">
      <stop offset="0%" style="stop-color:#FF6B6B"/>
      <stop offset="100%" style="stop-color:#FFB762"/>
    </linearGradient>
    <linearGradient id="pageGradient" x1="0%" y1="0%" x2="100%" y2="0%">
      <stop offset="0%" style="stop-color:#FFFFFF"/>
      <stop offset="100%" style="stop-color:#F8F8F8"/>
    </linearGradient>
  </defs>
  <!-- Main book shape with rounded corners -->
  <path fill="url(#bookGradient)" d="M28 4v24H8c-2.2 0-4-1.8-4-4s1.8-4 4-4h18V4H8C4.7 4 2 6.7 2 10v12c0 3.3 2.7 6 6 6h20V4h-2z" style="transition: all 0.3s ease" rx="2"/>
  <!-- Pages with subtle gradient -->
  <path fill="url(#pageGradient)" opacity="0.9" d="M8 20h18v2H8c-1.1 0-2 0.9-2 2s0.9 2 2 2h18v-6H8z"/>
  <!-- Decorative bookmark -->
  <path fill="#FF8989" d="M24 4v12l-2-2l-2 2V4z"/>
  <!-- Small stars for decoration -->
  <circle fill="#FFE066" cx="6" cy="8" r="1"/>
  <circle fill="#FFE066" cx="26" cy="28" r="1"/>
  <circle fill="#FFE066" cx="16" cy="16" r="0.5"/>
</svg>